<svg version="1" xmlns="http://www.w3.org/2000/svg" width="974.667" height="974.667" viewBox="0 0 731.000000 731.000000"><path d="M437.2 61.5c-1 2.1-.9 2.6.8 3.5 2.8 1.5 3.6 1.3 4.8-1.4.9-2 .7-2.5-1.4-3.5-3.2-1.4-2.9-1.5-4.2 1.4zM461.5 71.3c-2.1 4.1-1.9 5 1.2 6.4 4 1.9 4.7 1.6 6.5-2.2l1.6-3.6-3.9-1.8-3.9-1.9-1.5 3.1zM227.7 75.5c-33.4 11.9-61.3 25.8-90.2 45-11.9 7.9-32.2 23.4-38.4 29.3-20.4 19.5-26 25.3-35.2 36.7-34.5 42.7-55.1 89.2-61.5 139-.3 2.2-.7 5.1-1 6.5-.2 1.4-.7 8.5-1 15.7L-.2 361h110.7c88.2 0 110.5-.3 109.9-1.3-.5-.6-2.8-3.7-5.3-6.7-12.8-15.8-27-42.4-34.1-63.9-2.2-6.6-4.2-13-4.4-14.3-.3-1.3-.7-3.2-1-4.3-1.7-7.3-2.5-11.5-3-15-.4-2.3-.9-5.2-1.1-6.5-.7-3.6-1.9-21.4-1.9-29.5-.2-45 14.9-89.6 41-121.5 6.6-8.1 9.3-10.9 17.7-18.8 3.7-3.4 6.6-6.2 6.5-6.2-.2.1-3.3 1.2-7.1 2.5zM501.5 78.2l-1.3 3.3 5.1 2.3c2.8 1.2 5.5 2.1 6 1.9.5-.1 1.5-1.7 2.2-3.4l1.4-3.2-5.5-2.1c-3-1.1-5.7-2-6-2-.3 0-1.1 1.5-1.9 3.2zM443.7 79.4l-1.5 3.3 3.2 1.6 3.3 1.5 1.6-3.3c1.6-3.4 1.5-3.6-4.4-6.2-.3-.1-1.3 1.3-2.2 3.1zM485.1 82.6c-1.2 2.6-2.1 4.8-2.1 5 0 .2 2.2 1.5 4.9 2.8l4.9 2.5 2.5-5.2 2.5-5.2-3.2-1.6c-6.7-3.5-7.3-3.4-9.5 1.7zM426.1 86.8c-.7 1.3-1 2.6-.9 2.7.2.1 1.3.7 2.5 1.4 1.9 1 2.4.8 3.3-1 1.4-2.6.8-4.5-1.8-5.1-1.4-.4-2.3.1-3.1 2zM525.6 88c-.9 2.2-1.8 4-2.1 4-.2 0-3-1.1-6.1-2.5-6.4-2.9-6.4-2.8-6.4-1.5 0 .6-1.1 3.3-2.5 6.2-1.4 2.8-2.5 5.3-2.5 5.4 0 .2 2.7 1.5 5.9 2.9l5.9 2.7-2.3 5.6c-1.3 3.1-2.7 5.8-3.3 6-.5.1-3.3-.8-6.1-2.2-5.6-2.7-5.3-2.9-8.8 4.7-2.6 5.5-2.8 6.7-1.2 6.7.6 0 3.3 1 5.9 2.2l4.7 2.2-2.5 5.8c-1.4 3.2-2.9 5.8-3.3 5.8-.4 0-2.8-.9-5.4-2-2.6-1.1-5.1-2-5.6-2-.7 0-5.9 10.1-5.9 11.5 0 .2 2.5 1.3 5.5 2.6 3 1.2 5.5 2.8 5.5 3.5 0 1-3.7 10.3-4.5 11.2-.1.2-2.8-.9-5.9-2.4-3.1-1.5-5.8-2.5-6-2.3-.4.5-5.6 11.8-5.6 12.3 0 .2 2.7 1.5 6 3 4.2 1.9 5.7 3.1 5.3 4.1-.7 2-1.1 1.9-7.6-1-4.1-1.9-5.4-3-5.1-4.3.7-2.5-10.5-7.1-11.8-4.9-.7 1.3-1.9 1.1-8.3-1.1-5.6-2-7.3-3.1-7-4.2.4-1.1-.9-2.3-3.9-3.8-4.4-2.1-4.5-2.1-5.1-.2-.8 2.5-.7 2.5-11-.1-8.2-2.1-8.3-2.2-7.4-4.6.5-1.3.9-2.6.9-2.8 0-.6-6.1-3.7-6.4-3.3-.1.2-.8 1.8-1.5 3.5-.8 1.8-1.6 3.3-2 3.3-.3 0-4-.6-8.1-1.4-7-1.3-12.8-2.1-24-3l-4.5-.4.1 71.1c.1 39.2.2 71.5.3 71.8 0 .3 2.4.7 5.3.8 4.4.1 13 1.4 24.1 3.6 8.2 1.6 28.9 9.4 41.2 15.5 21.1 10.4 39.1 22.9 57.5 39.9l5.5 5.1h225.8l-.7-13.7c-.4-7.5-.9-13.9-1-14.2-.2-.3-.7-3.4-1-6.9-1.2-11.5-5.6-31-10.3-45.7-11.1-34.6-26.8-63.4-51.2-94-10.5-13.2-36.3-39.5-38.7-39.5-.8 0-1.3-.3-1-.8.9-1.5-29.4-24.4-46.3-34.7-5.9-3.7-6.4-3.8-7.6-2.1-1.2 1.6-1.5 1.6-4.4.1-2.4-1.2-3.1-2.2-2.9-4.1.3-2.2-.7-3-7.1-6.4-4-2.2-7.5-4-7.8-4-.2 0-.9 1.3-1.4 3-1.3 3.5-2.4 3.7-7.4 1.3-2.4-1.2-3.5-2.2-3.1-3.3 2-6.2 2.2-5.8-4.9-9-3.7-1.6-6.8-3-7-3-.1 0-1 1.8-1.9 4zm4 8.1c2.7 1.2 5.1 2.3 5.2 2.4.7.6-4.3 10.5-5.3 10.4-.5 0-3.1-1-5.6-2.2l-4.6-2.2 2.4-5.3c1.3-2.8 2.6-5.2 2.7-5.2.2 0 2.5 1 5.2 2.1zm24.8 12.4c4.1 1.7 4.2 2.1 2 6.8l-1.6 3.4-3.9-1.5c-4.3-1.7-4.7-2.8-2.4-7.2 1.8-3.5 1.3-3.4 5.9-1.5zm-18 6.5c2.5 1 4.6 2.2 4.6 2.4 0 .3-1 2.5-2.1 4.9l-2.2 4.4-4.7-2-4.8-2 2.1-4.8c1.1-2.7 2.1-4.9 2.3-4.9.1 0 2.3.9 4.8 2zm-12.6 8.5c.1.1-.9 2.7-2.2 5.8l-2.5 5.6-2.8-1.4c-1.5-.8-4.1-1.9-5.6-2.4-2.2-.9-2.6-1.4-1.8-2.8.5-1 1.6-3.5 2.4-5.5l1.6-3.7 5.3 2.1c2.9 1.2 5.4 2.2 5.6 2.3zm55.6-2.4c2.2 1 2.3 1.4 1.3 3.8-.6 1.4-1.2 2.8-1.4 3-.1.2-1.5-.2-3.2-.8-2.7-1.2-2.8-1.4-1.8-4.2 1.3-3.3 1.6-3.4 5.1-1.8zm-18.4 6.4c3.3 1.7 3.6 2.5 1.8 5.8-.7 1.2-1.3 2.3-1.4 2.5 0 .1-1.5-.3-3.2-.9-3.5-1.2-3.8-2.4-2-6.4 1.3-3 1.1-2.9 4.8-1zm-18.4 6.1c2.2.9 4 1.7 4.2 1.9.4.3-2.9 8.5-3.4 8.5-.3 0-2.2-.9-4.4-2l-3.9-2 1.7-4c.9-2.2 1.8-4 1.8-4 .1 0 1.9.7 4 1.6zm61.3.3c1.7 1.1.6 3.1-1.9 3.1-1.3 0-1.7-.5-1.3-2 .6-2.2 1.1-2.4 3.2-1.1zm-78.5 6.1l4.6 2.1-1.5 3.4c-2.8 6.8-2.6 6.7-7.7 4.2l-4.6-2.2 2.1-4.8c1.1-2.6 2.2-4.7 2.3-4.7.1 0 2.2.9 4.8 2zm60.9.2c1.3 1.1 1.4 1.7.4 3.5-1 1.8-1.5 2-3.3 1-1.7-1-2-1.7-1.3-3.5 1-2.5 1.8-2.7 4.2-1zm-77.1 7.1c3.6 1.5 3.7 1.6 2.3 4.4-.7 1.5-1.8 4-2.4 5.5l-1 2.7-4.8-2.1c-2.6-1.1-5.1-2.3-5.5-2.7-.4-.3.4-3 1.8-5.9 2-4.4 2.7-5.1 4.2-4.3.9.5 3.4 1.6 5.4 2.4zm60.1-.3c1 .9-.2 6-1.4 6-.4 0-1.9-.5-3.2-1.1-2.2-1-2.3-1.4-1.4-4 .9-2.3 1.6-2.8 3.2-2.3 1.1.4 2.4 1 2.8 1.4zm-19.2 5.6c2.2 1.1 2.9 2 2.4 3.2-.4.9-1 2.5-1.2 3.4-.3 1-1 1.8-1.5 1.8-1.8 0-6.9-3.1-6.4-3.9.3-.4 1-2 1.5-3.5 1.2-3.1 1.3-3.1 5.2-1zm60.9.2c0 1.3-1.2 2.2-2.2 1.6-1-.6-.1-2.4 1.3-2.4.5 0 .9.4.9.8zm-79 6.2l3.9 2-1.6 3.7c-.8 2.1-1.7 4-1.8 4.2-.5.5-8.6-3.2-8.3-3.8.2-.4 1-2.3 1.8-4.4.8-2 1.6-3.7 1.7-3.7.2 0 2.1.9 4.3 2zm60.9-.1c1.7 1.1.6 3.1-1.9 3.1-1.3 0-1.7-.5-1.3-2 .6-2.2 1.1-2.4 3.2-1.1zm-78.6 5.6c2 .8 3.8 1.9 4.1 2.3.5.9-3 9.2-3.8 9.2-.3 0-2.5-.9-5.1-2-4-1.7-4.5-2.2-3.5-3.9.5-1.1 1.4-3.1 2-4.5 1.1-3 1.6-3.1 6.3-1.1zm61.5 4.1c-.9 2-1.4 2.2-3.2 1.2-2.9-1.5-2.9-1.4-1.7-3.7 1-1.7 1.5-1.9 3.5-.9 2.1.9 2.3 1.4 1.4 3.4zm-78.6 2.7l4.7 2.2-2.4 5.2c-1.4 2.9-2.7 5.3-2.9 5.3-.2 0-2.6-1-5.4-2.3l-5-2.2 2.2-5.2c1.1-2.9 2.6-5.3 3.1-5.2.6 0 3.1 1 5.7 2.2zm61.8 1.9c0 1.8-2.1 4.8-3.3 4.8-.7 0-2.1-.6-3.1-1.3-1.5-1.1-1.6-1.7-.6-3.9 1.1-2.4 1.5-2.5 4.1-1.6 1.6.5 2.9 1.4 2.9 2zm-19.5 4c2.9 1.3 2.9 1.5 1.2 5.6l-1.3 3.1-3.6-1.7c-3.7-1.7-3.7-1.7-2.3-5 1.5-3.5 2.2-3.8 6-2zm59.9 1.3c-.6 1.6-2.4 2.1-2.4.7 0-1.1 1.1-2.2 2.1-2.2.5 0 .6.7.3 1.5zm-78.1 5.1c1.8.9 3.3 1.8 3.5 1.9.1.1-.6 2-1.6 4.2l-1.8 4-4.2-2c-2.4-1.1-4.1-2.2-3.9-2.6.2-.3.9-2.1 1.6-3.9 1.5-3.7 2-3.8 6.4-1.6zm60.7 2.9c-.6.8-1.8 1.1-2.6.8-1.6-.6-1.6-.6-.8-2.7.5-1.2 1-1.3 2.6-.5 1.5.8 1.7 1.3.8 2.4zm-76.8 4.1c1.8.9 2.5 1.9 2.2 2.9-.8 1.9-.7 1.9-5.7-.6-5.2-2.6-5-2.5-4.2-3.9.7-1.2 3.3-.6 7.7 1.6zm59.6-.3c.7.8.6 1.7-.3 3-1.1 1.5-1.7 1.7-3.4.7-1.7-.9-1.9-1.5-1.1-3 1.2-2.3 3.3-2.6 4.8-.7zm-18.4 6c1.4 1 1.5 1.8.7 3.9-.9 2.5-1.3 2.6-4.1 1.7-3.5-1.3-3.4-1-1.8-4.4 1.3-2.8 2.6-3.1 5.2-1.2zm-17.1 6.4c2.1.6 2.1 1.6.2 5.3-1.4 2.7-1.7 2.9-4.3 1.8-4.2-1.8-4.5-2.4-2.7-5.8 1.2-2.3 2.1-3 3.3-2.5.9.4 2.5 1 3.5 1.2zm59.7.3c0 .5-.7 1-1.5 1s-1.5-.5-1.5-1c0-.6.7-1 1.5-1s1.5.4 1.5 1zm-18.6 5.6c1.7.7 1 3.4-.9 3.4-1.7 0-2.8-1.7-2-3 .7-1.2.8-1.2 2.9-.4zm-17.5 6.3c.8.5 1.1 1.6.6 3-.5 1.7-1.2 2-2.8 1.5-3-.9-3-.9-1.7-3.3 1.2-2.3 1.8-2.5 3.9-1.2zM578 228c0 .5-.7 1-1.5 1s-1.5-.5-1.5-1c0-.6.7-1 1.5-1s1.5.4 1.5 1zm-18.5 6.1c1.1 1.6.1 1.9-1.3.3-.7-.8-.8-1.4-.3-1.4s1.3.5 1.6 1.1zM467.7 89.5c-2.3 4.8-2.2 5.1 1.5 6.9 4.5 2.3 5.6 2 7.3-2 2-4.9 2-4.9-1.9-6.8-4.7-2.2-5-2.1-6.9 1.9zM450.2 96.5c-1.8 4-1.5 5 2.4 6.7l3.6 1.6 1.4-3.4c1.9-4.6 1.9-4.8-1.9-6.2-4.4-1.6-4.2-1.6-5.5 1.3z"/><path d="M491.4 100.5c-1.3 3.1-2.4 5.7-2.4 5.9 0 .5 9.6 4.6 10.8 4.6 1.4 0 5.7-9.9 4.6-11-.5-.5-3.1-1.8-5.7-2.9l-4.8-2.1-2.5 5.5zM432.2 104.9c-1.1 3-.9 3.2 2.1 4.5 3.1 1.3 3.2 1.2 4.5-1.7 1.5-3.3.9-4.3-2.9-5.2-2.3-.6-2.8-.2-3.7 2.4zM474 107.6c-1.1 2.5-2 4.9-2 5.2 0 .4 2.3 1.7 4.9 2.9l4.9 2.1 2.1-4.8c1.2-2.7 2.1-5.1 2.1-5.4 0-.5-8.7-4.6-9.7-4.6-.2 0-1.3 2.1-2.3 4.6zM415.3 110.8c-.3.9-.8 2-1 2.5-.2.4.8 1.2 2.3 1.7 2.1.8 2.9.8 3.6-.2 1.3-2.2.9-3.4-1.7-4.6-2.2-1-2.7-.9-3.2.6zM456.2 115.2l-1.9 4.3 3.1 1.7c4.6 2.5 6 2.2 7.9-1.7 2.2-4.7 2.2-5.1-1-6.3-1.6-.5-3.6-1.3-4.5-1.7-1.3-.5-2.1.3-3.6 3.7zM438.8 122.4l-1.6 3.3 3.5 1.7c4 1.9 5.5 1.2 6.7-3.1.6-1.8.1-2.5-2.3-3.7-4.1-2.2-4.5-2.1-6.3 1.8zM480.4 125.1c-1.4 2.8-2.4 5.5-2.2 6 .2.5 2.7 2.1 5.6 3.4l5.3 2.5 2.5-5.7c1.4-3.1 2.1-5.9 1.7-6.3-.4-.4-2.9-1.7-5.6-2.8l-4.7-2.1-2.6 5zM421.1 129.6c-.6 1.5-1 2.7-.9 2.8.2.1 1.6.8 3.2 1.4 3.1 1.4 4 .9 5-2.4.5-1.6 0-2.3-1.9-3.2-3.6-1.7-4-1.5-5.4 1.4zM463.6 130.8c-3.2 6.3-3.1 6.9 2 9.1 2.6 1.2 4.8 2.1 5 2.1.4 0 4.4-8.6 4.4-9.3 0-.3-1.2-1-2.7-1.6-1.6-.6-3.8-1.5-5-2.1-2-.8-2.5-.5-3.7 1.8zM403.9 136.2c-1 1.8-.8 2.4.7 3.5 2.6 1.9 4.1 1.6 4.8-1 .4-1.4 0-2.6-1.1-3.5-2.3-1.7-3.1-1.5-4.4 1zM445.4 139.5c-.7 1.9-1.4 3.9-1.4 4.4 0 .9 8 4.5 8.6 3.8.2-.1 1-2 1.9-4l1.5-3.7-4-2c-2.1-1.1-4.2-2-4.5-2-.3 0-1.3 1.6-2.1 3.5zM428 147l-2 4 3.6 1.5c4.6 1.9 4.1 2 5.9-1.5 2.1-4 2-4.4-2-6.3L430 143l-2 4zM469.2 150.2c-1.2 2.7-2.2 5.3-2.2 5.6 0 .7 11.1 5.5 11.4 5 2.2-4.4 4.6-10.1 4.4-10.3-.6-.5-6.9-3.6-9.1-4.4-2.1-.8-2.5-.4-4.5 4.1zM336.6 154.7c-36.2 4.7-66.6 26.6-83 59.9-21.6 44-15.8 101.5 14.1 140.6l4.4 5.8h90.5v-21c0-17.9-.2-21-1.5-21.5-.8-.3-5.8-.8-11.1-1.1-19.1-1-20.7-1.2-24.2-2.8-7.3-3.5-6.9-10.9.6-13.4 2.2-.7 5.6-1.5 7.5-1.8 2-.3 4.6-.7 5.9-.9 2.2-.4 12.4-1.5 21.7-2.4.7-.1 1-23.9 1-71.6l.1-71.6-8.1.2c-4.4.2-12.5.8-17.9 1.6zM451.8 157.3c-2.3 5.4-2.3 5.4 1 7 6.3 3.3 6.9 3.2 9.1-1.9 1.2-2.6 2.1-4.8 2.1-5.1 0-.5-8.2-4.3-9.5-4.3-.5 0-1.8 1.9-2.7 4.3zM371.5 340.1V361H413l41.5-.1-6-5.5c-12.9-11.9-32.3-23.2-51-29.7-5.5-1.9-10.3-3.5-10.8-3.5-.4 0-3.1-.6-6-1.1-2.8-.6-6.1-1.3-7.2-1.5-2-.4-2 .1-2 20.5zM.4 381.7c.7 11.7.8 13.3 2.2 22.8.4 2.7.8 5.7.9 6.5 1.1 7.6 2 12.2 4.6 22.5 12.8 50.5 38.6 94.3 79.4 134.8 22 21.9 63.1 51.5 72.6 52.3 5 .4 6.2 1.2 5.6 3.4-.6 2.3 14.4 10.5 16.1 8.8.7-.7 1.2-1.8 1.2-2.6s.6-1.2 1.3-.9c.6.2 2.9 1 5 1.8 4 1.4 4.1 1.6 2.8 5.2-.9 2.3-.6 2.6 5 5.1 7.6 3.3 8.5 3.3 9.7-.4l1.1-2.9 5.6 2.4c3 1.4 5.9 2.5 6.3 2.5.4 0 1.8-2.7 3.1-6s3-6 3.8-6c.8 0 3.1.9 5.3 2 5.1 2.6 5.7 2.5 7.5-1 4-7.8 4-7.9-2-10.6-3.1-1.3-5.7-2.4-5.9-2.4-.2 0-1.4 2.5-2.7 5.5-1.2 3-2.7 5.5-3.3 5.5-.6 0-3.4-1-6.3-2.2-5.8-2.5-5.8-2.6-1.9-10.4l2.2-4.3 5.3 2.4c2.9 1.4 5.6 2.5 6 2.5.4 0 1.9-2.8 3.3-6.3l2.6-6.2-4.6-2.2c-2.6-1.3-5.2-2.3-5.9-2.3-.7 0-1-.7-.6-1.8.5-1.6 4.4-10.4 4.8-11 .2-.2 2.9.9 6 2.3 3.2 1.4 5.9 2.4 6.1 2.3.1-.2 1.4-2.9 2.7-6l2.6-5.8-5.9-2.7-5.8-2.6 2-5.1c1-2.8 2.3-5.5 2.8-6s3 0 5.9 1.3c2.7 1.1 5.4 2.1 5.9 2.1.8 0 6.2-11 6.2-12.6 0-.2-.6-.4-1.2-.5-.7 0-3.4-1-6-2.2-3.8-1.8-4.5-2.5-3.7-3.9.8-1.5 1.5-1.3 6.8 1.2 3.7 1.8 5.8 3.5 5.7 4.4 0 1 1.9 2.5 5.2 4.1 4.6 2.1 5.4 2.2 5.9.9.6-1.7 2.3-1.5 10.7 1.7 4.1 1.5 5.3 2.4 5 3.7-.3 1.2.7 2.2 3.8 3.5 4.1 1.7 4.9 1.5 6-1.5.2-.4 4.2.3 9 1.6s9.1 2 9.4 1.7c.4-.3.4.3-.1 1.4-1.8 4.9-1.7 5.5 1 6.5 1.4.5 3 1 3.5 1 .8 0 2.5-4.8 2.1-6.3-.1-.5.6-.6 1.6-.4 2.4.7 6.9 1.6 11.8 2.3 2.2.3 5.1.7 6.4.9 1.3.2 6.5.7 11.5 1.1l9.2.6-.1-71.6V434l-4.5-.1c-2.5-.1-5.4-.3-6.5-.4-40-4.7-79.1-23.1-113.5-53.4-4.1-3.6-8.1-7.4-8.8-8.3-1.2-1.7-7.8-1.8-115.3-1.8H-.2l.6 11.7zM174 496.5c1.1 1.3 1 1.4-.4.9-.9-.3-1.6-1-1.6-1.5 0-1.3.6-1.1 2 .6zm-17 5.5c0 .5-.7 1-1.5 1s-1.5-.5-1.5-1c0-.6.7-1 1.5-1s1.5.4 1.5 1zm26.4 9.9c.2.3 0 1.6-.5 2.8-.7 2-1.1 2.2-3.3 1.2-2.1-1-2.3-1.5-1.4-3.4.9-2.1 4.1-2.5 5.2-.6zm-19.1 9.1c-.3 1.2-1.1 1.6-2.4 1.3-2.1-.6-2.1-.6-1.3-2.6.8-2.2 4.3-1 3.7 1.3zm43.7.5c2.9 1.5 3 1.5 1.3 4.9-1.5 3.2-1.8 3.3-4.4 2.4-3.8-1.3-4.1-2-2.8-5.7 1.2-3.5 1.9-3.7 5.9-1.6zm-62.9 5.8c-.1 1.2-1.5.9-1.9-.4-.3-.6.1-1 .8-.8.6.3 1.1.8 1.1 1.2zm44.4 1.7c2.5 1 2.5 1 1 4-1.5 2.9-1.6 3-4.4 1.5-2.7-1.3-2.8-1.7-1.8-4 1.4-2.8 1.6-2.9 5.2-1.5zm-17.7 10.6c-.6 1.3-1.4 2.2-1.7 2-.3-.2-1.4-.6-2.3-.9-1.5-.5-1.6-1-.7-3.1 1-2.1 1.5-2.3 3.4-1.4 2 .9 2.2 1.4 1.3 3.4zm62.6 1.9c-.5 1.2-1.1 1.2-4.2-.1-2.1-.9-4.3-1.8-4.9-2.1-1.6-.6-1.6-1.6-.2-3 1.5-1.5 10 3.3 9.3 5.2zm-19.3-2.7l3.6 1.7-1.8 4.2-1.8 4.2-4-1.6c-4.7-1.8-4.7-2-2.4-6.8 1.9-4 1.6-3.9 6.4-1.7zm-61.7 5c.2.4.1 1.4-.4 2.1-1.1 1.9-4.1.6-3.4-1.4.6-1.6 2.9-2 3.8-.7zm43.1 2.4c1.4.6 2.5 1.8 2.5 2.5 0 1.2-1.6 5-2.5 6.1-.6.6-6.5-2.9-6.5-3.8 0-1.6 2.3-6 3.1-6 .4 0 2 .5 3.4 1.2zm48.5 5.4c0 .7-.9 3.3-2 5.8-1.8 4.3-2.1 4.5-4.5 3.6-4.6-1.7-8.6-4.1-8.2-4.8.2-.4 1.3-2.8 2.5-5.4l2.1-4.7 5.1 2.2c2.7 1.1 5 2.6 5 3.3zm-110.6.9c-.4.8-1 1.2-1.5.9-1.4-.8-1-2.4.6-2.4.9 0 1.2.6.9 1.5zm45.3 4.6c-1.3 3.2-2.4 3.6-5.2 1.5-1.6-1.2-1.7-1.8-.7-4 1-2.3 1.4-2.4 4.1-1.5 2.7 1 2.8 1.2 1.8 4zm45.7 1c.7.6-1 6.2-2.9 9.7-.2.3-9.5-3.8-9.5-4.3 0-.2.9-2.4 2-4.9l1.9-4.5 3.8 1.5c2.1.9 4.2 2 4.7 2.5zm-63.9 3.9c.2.4-.1 1.5-.8 2.4-1.9 2.6-5.7.9-4.6-2.1.6-1.5 1.3-2 2.9-1.6 1.1.3 2.2.9 2.5 1.3zm42.7 1.5c3.5 1.6 3.6 1.8 2.6 4.3-2.2 5-3.2 5.6-6.9 3.7-1.9-1-3.6-1.9-3.8-2.1-.5-.4 3.3-8.2 3.9-7.9.3.1 2.2 1 4.2 2zM142 569c1.1.7 1.2 1.2.3 2.1-1.6 1.6-4.4.4-3.7-1.6.7-1.7 1.3-1.8 3.4-.5zm46.6 3c.5 0-1.8 5.3-2.7 6.4-.8.9-6.9-1.1-6.9-2.2 0-.3.5-2 1.2-3.8l1.2-3.3 3.4 1.5c1.9.8 3.6 1.4 3.8 1.4zm40.8 1c2.5 1.2 4.6 2.8 4.6 3.6 0 1.7-3.8 9.4-4.6 9.4-.6 0-10.4-4.2-10.4-4.4 0-.1.9-2.1 2-4.4 1.1-2.2 2-4.6 2-5.2 0-1.4 1.1-1.3 6.4 1zm-106 4.5c-.4.8-1 1.2-1.5.9-1.4-.8-1-2.4.6-2.4.9 0 1.2.6.9 1.5zm45.6 3.4c0 3-1.7 4.4-4.4 3.7-2.7-.7-3.3-2.5-1.6-5.6.9-1.7 1.4-1.8 3.5-.8 1.4.6 2.5 1.8 2.5 2.7zm42-.3c2.2.9 4 2.2 4 3 0 1.9-3.2 8.4-4.2 8.4-.6 0-7.1-2.7-8.6-3.6-.5-.3 3.6-9.4 4.2-9.4.3 0 2.4.7 4.6 1.6zm-61.2 8.9c-.9 2-1.4 2.2-3.4 1.3-1.3-.6-2.2-1.4-2-1.7.2-.3.6-1.4.9-2.3.5-1.5 1-1.6 3.1-.7 2.1 1 2.3 1.5 1.4 3.4zm43.6-.8l3.5 1.6-2 3.9c-2.2 4.3-2.7 4.4-6.9 2.3-3.5-1.8-3.4-1.3-1.5-5.9 1.7-4.1 2.1-4.2 6.9-1.9zm-63 4.9c2 .8.9 3.4-1.5 3.4-1.8 0-2.6-2-1.2-3.3.8-.8.8-.8 2.7-.1zm45 2.9c1.7 1.3 1.7 1.8.6 4.5-1.4 3.4-1.7 3.5-5.7 1.7-2.9-1.2-2.9-1.3-1.6-4.5 1.4-3.5 3.6-4 6.7-1.7zm42.1 1.6c.5.5 1.7.9 2.6.9 3 0 3.2 1.9.9 7.5l-2.2 5.4-5.2-2.6c-2.8-1.4-5.2-2.6-5.4-2.8-.1-.1.8-2.5 2-5.3 1.9-4.3 2.6-5.1 4.3-4.6 1.1.4 2.4 1 3 1.5zm-59.5 7c0 .4-.5 1.9-1.1 3.3-1.1 2.4-1.3 2.4-4 1-2.8-1.4-2.9-1.5-1.4-4.4 1.4-2.7 1.8-2.8 4-1.8 1.4.6 2.5 1.5 2.5 1.9zm42.3.9c4.2 1.6 4.3 1.9 2 7.2-1.9 4.4-1.9 4.3-7.3 2.2-4.5-1.8-4.5-1.9-2.6-6.5 1.5-3.6 2.6-5.1 3.5-4.7.3.2 2.3 1 4.4 1.8zm-18.7 7.5c3.7 1.5 3.9 2.7 1 8.1-1.1 2.1-1.2 2.2-4.8.6-4.2-1.8-4.5-2.9-2.3-7.2 1.8-3.5 1.5-3.4 6.1-1.5zm25.7 10c2.6 1.1 4.7 2.3 4.7 2.7 0 .4-1 3-2.1 5.7l-2.2 4.9-4.6-2c-2.5-1.1-4.9-2.4-5.4-2.7-.8-.8 3.2-11.3 4.2-10.9.4.2 2.8 1.2 5.4 2.3zM281 373.3c1.9 1.8 6.7 5.7 10.5 8.5 3.9 2.9 7.5 5.6 8 6 9.8 7.4 36 18.4 51.9 21.6 12.3 2.6 11.1 4.6 11.1-18.9l.1-20.5h-85.1l3.5 3.3zM371.9 370.2c-.4.9-.3 41.8.1 41.9.3 0 1.4.2 2.5.4 1.1.3 7.2.6 13.5.9 14 .6 16.9 1.1 20.5 4 3.2 2.6 3.7 6.7 1 9.6-2.4 2.6-11.6 4.6-31 6.6-3.3.3-6.2.8-6.5 1.1-1 1-.5 142.3.5 142.7 1.4.5 19-.8 26.2-2 23.4-3.8 44.3-14.9 60.9-32.4 26.4-27.9 37.4-71.2 28.8-113.7-3.5-17.3-11.9-36.7-22.1-51l-5.8-8.3h-44.2c-24.4 0-44.4.1-44.4.2zM515.8 376.2c14.1 18.3 25.1 37.8 32.6 58.1 3.5 9.3 7.9 24.7 9 31.2.3 1.6 1 5.3 1.5 8.2.6 2.9 1.3 7.4 1.6 10 .3 2.6.8 6.7 1.1 9 .6 5.2.7 29.4 0 34.8-.2 2.2-.7 6.7-1.1 10-1.9 17.9-8.7 41.6-16.9 59-9.7 20.3-19.4 34.2-34.5 49.3-6.3 6.4-8.6 9.2-7 8.7 3.1-.9 17.6-6.2 21.4-7.9 19.5-8.5 26.9-12.1 38.1-18.2C635.1 588.2 688 530 713.9 460.9c4.1-11.2 8.7-26.5 10.6-35.4 2.1-9.7 3.1-15.4 4-23.1.4-3.3.9-6.7 1.1-7.8.2-1 .6-6.9 1-13.2l.6-11.4H511l4.8 6.2z"/><path d="M269.9 567.6c-1 2.5-1.9 4.9-1.9 5.4 0 .4 2.1 1.7 4.8 2.8l4.7 2.1 2.2-4.2c1.2-2.3 2.2-4.7 2.3-5.3 0-.5-2.3-2-5.1-3.1l-5-2.2-2 4.5zM251 574.6c-1.2 3-2.1 5.6-1.9 5.7 1.8 1.2 11 4.9 11.3 4.6.7-.7 4.6-10.2 4.4-10.4-.7-.6-7-3.6-9.1-4.4-2.2-.9-2.6-.5-4.7 4.5zM296.5 579c-2.1 4-1.9 4.7 1.5 6.5 4.1 2.1 4.5 2 6.2-2.3l1.5-3.8-3.9-1.6-3.8-1.7-1.5 2.9zM277.6 585.6c-2.2 4.6-2.1 4.8 1.9 6.7 4.8 2.3 5 2.2 7.3-2.2l2.1-3.9-2.7-1.1c-1.5-.6-3.6-1.5-4.8-2-1.8-.8-2.3-.4-3.8 2.5zM258.6 593c-.9 2.2-1.6 4.3-1.6 4.5 0 .3 2.2 1.6 4.9 2.8l4.8 2.4 2.2-4.4c1.1-2.4 2.1-4.6 2.1-4.8 0-.8-7.8-4.5-9.4-4.5-.7 0-2.1 1.8-3 4zM322.6 591.6c-.5 1.9-.2 3 1.1 4 2.6 1.9 3 1.8 4.1-1.5.9-2.5.7-3-1.4-4-3.2-1.4-3.1-1.5-3.8 1.5zM240.1 599.5c-1.3 3.1-2.2 5.7-2 5.9.5.4 10 4.6 10.5 4.6s5.4-9.7 5.4-10.7c0-.7-4.1-2.6-10.1-4.8-1.1-.4-2.1.9-3.8 5zM303.9 598.1c-.6 1.7-1 3.1-.8 3.2 1.3.9 6.2 2.7 6.5 2.4.2-.2.6-1.7 1-3.3.5-2.5.2-3-2.5-4-2.8-1.1-3-1-4.2 1.7zM285.1 604.7c-1.5 4-1.6 3.8 3 5.7l3.5 1.5 1.3-3.5c1.5-4.1 1.7-3.8-3-5.7l-3.6-1.5-1.2 3.5zM266.6 610.5c-2.2 5.1-2.2 5.2 2.7 7.4l4.2 2 1.7-3.7c2.3-5.1 2.2-5.9-.9-7-1.6-.5-3.6-1.3-4.5-1.7-1.3-.5-2.1.2-3.2 3zM248 617c-1.1 2.1-2 4.6-2 5.3 0 1.2 7 4.7 9.3 4.7.8 0 5-9.1 4.5-9.5-.7-.6-8.8-4.5-9.2-4.5-.3 0-1.5 1.8-2.6 4zM311.6 615.7c-1 2.4-.7 3.2 1.5 4.3 1.7.9 2.3.8 3.4-.7 1.5-2 .6-3.8-2.5-4.6-1.1-.3-2.1.1-2.4 1zM293 622.6c-1.4 3.6-1.3 3.9 1.6 5.3 3.1 1.4 3.9 1 5.2-2.8 1-2.8.8-3-2-4-4-1.4-3.7-1.5-4.8 1.5zM274.2 629.3c-1.6 4.5-1.6 4.3 2 6.1 3.9 2 3.5 2.1 5.3-1.4 2.2-4.2 1.9-4.9-2-6.6-4.4-1.8-3.9-1.9-5.3 1.9zM255.5 635.7c-1 2.1-1.9 4.1-2.1 4.4-.2.3 1.7 1.5 4.2 2.7l4.5 2.2 2-4.6c1.2-2.5 1.9-4.7 1.7-4.8-.9-.5-7.9-3.6-8.2-3.6-.2 0-1.2 1.7-2.1 3.7zM236.3 643l-2.2 5 5.1 2.5c2.8 1.4 5.2 2.4 5.3 2.2.3-.3 4.5-9.9 4.5-10.2 0-.3-9.7-4.5-10.2-4.5-.2 0-1.3 2.3-2.5 5zM300.2 641.5c-1.1 2.3-.9 2.7 1.4 3.6 2.1.7 2.9.6 4-.8 1.8-2.5 1.8-2.8-1.1-4.1-3.3-1.5-3-1.6-4.3 1.3zM219.2 646.1c-.7 1-1.2 2.3-1.2 2.7 0 .9 11 5.6 11.5 5 .1-.2.7-1.2 1.3-2.4 1.2-2.3 1.1-2.4-7.4-6-2.7-1.1-3.1-1.1-4.2.7zM282 646.9c-1.7 3.2-1.2 5.1 1.7 6.2 2.2.8 3 .7 4-.7 2-2.7 1.5-5-1.2-6.2-3.3-1.5-3.2-1.5-4.5.7zM262.8 654.9l-1.5 3.9 3.4 1.6c1.8.9 3.6 1.6 3.9 1.6.5 0 3.4-6.4 3.4-7.5 0-.4-6.6-3.5-7.5-3.5-.1 0-.9 1.7-1.7 3.9zM289.2 666.4c-.9 2-.8 2.5.4 3 4.9 1.9 8.4-2.2 3.7-4.3-3.1-1.4-2.8-1.5-4.1 1.3z"/></svg>